<?xml version="1.0" encoding="UTF-8"?>
<svg width="128px" height="140px" viewBox="0 0 128 140" version="1.1" xmlns="http://www.w3.org/2000/svg" xmlns:xlink="http://www.w3.org/1999/xlink">
    <!-- Generator: Sketch 57.1 (83088) - https://sketch.com -->
    <title>Fairtrade</title>
    <desc>Created with Sketch.</desc>
    <g id="Fairtrade" stroke="none" stroke-width="1" fill="none" fill-rule="evenodd">
        <g id="Group-14">
            <path d="M32.1313127,2.40929876 C-0.577056851,0.854305769 -4.82518748,56.2953762 4.0121008,69.4373237 C9.93976332,78.2523615 18.7479531,80.1092011 19.2864201,89.8174913 C19.8995279,100.871519 3.36462363,137.281216 35.3960139,139.664689 C43.3606831,140.257345 51.4735037,140.027715 59.410157,139.263852 C96.359091,135.707703 82.143695,102.823431 89.0674965,84.2388709 C93.2750853,72.9450483 116.591544,68.7715147 125.177841,50.1162482 C135.648697,27.3664404 115.50097,14.7201946 89.1489867,2.25117043 C78.1968581,-2.93107153 73.5306347,2.39414774 64.1009366,2.84690972 C55.5667101,3.25667612 46.9947856,2.84690972 38.4417101,2.84690972 L32.1313127,2.40929876 Z" id="Path-18" fill="#E2D9CE" opacity="0.246824"></path>
            <g id="Group-3" transform="translate(13.000000, 19.000000)" stroke="#000000" stroke-linecap="round" stroke-linejoin="round" stroke-width="2">
                <path d="M37.360087,82.221098 C38.2703192,82.6806872 41.001016,83.5998655 45.5521774,84.978633 C50.1033387,86.3574005 53.5167097,85.2084276 55.7922904,81.5317143 L42.8214806,76.706028 C37.8152031,74.8676713 34.4018321,74.1782876 32.5813676,74.6378768 C29.8506708,75.3272605 23.0239288,76.706028 18.2452094,78.7741793 C15.0593965,80.1529468 11.1909093,81.0721251 6.639748,81.5317143 L11.4184674,98.766308 C18.2452094,94.6300055 22.5688127,92.5618543 24.3892772,92.5618543 C27.119974,92.5618543 51.013571,100.145076 55.1096162,99.4556918 C57.840313,98.9961026 68.5355421,93.9406218 87.1953036,84.2892493 C87.1953036,81.0721251 85.6023971,79.6933576 82.4165842,80.1529468 C77.6378648,80.8423305 61.9363582,84.2892493 56.4749646,87.736168" id="Path"></path>
                <path d="M76.4175258,72.5 L76.4175258,30.5" id="Path-2"></path>
                <path d="M19.7196091,42.5 L0.917525773,34.5 L19.7196091,4.5 L36.5425258,0.5 C39.1814147,7.16666667 43.139748,10.5 48.4175258,10.5 C53.6953036,10.5 57.6536369,7.16666667 60.2925258,0.5 L77.1154424,4.5 L95.9175258,33.5 L77.1154424,41.5" id="Path-4"></path>
                <path d="M46.9175258,51.5 C40.4939555,46.2657521 36.3186348,42.0129256 34.3915638,38.7415206 C31.5009571,33.8344132 33.4280282,29.9087272 35.3550993,27.9458842 C37.2821704,25.9830412 43.0633836,25.0016198 46.9175258,31.8715702" id="Path-5"></path>
                <path d="M61.9175258,51.5 C55.4939555,46.2657521 51.3186348,42.0129256 49.3915638,38.7415206 C46.5009571,33.8344132 48.4280282,29.9087272 50.3550993,27.9458842 C52.2821704,25.9830412 58.0633836,25.0016198 61.9175258,31.8715702" id="Path-5-Copy" transform="translate(54.917526, 39.000000) scale(-1, 1) translate(-54.917526, -39.000000) "></path>
                <path d="M20.4175258,30.5 L20.4175258,60.5" id="Path-3"></path>
            </g>
        </g>
    </g>
</svg>