<?xml version="1.0" encoding="UTF-8"?>
<svg width="90px" height="90px" viewBox="0 0 90 90" version="1.1" xmlns="http://www.w3.org/2000/svg" xmlns:xlink="http://www.w3.org/1999/xlink">
    <!-- Generator: Sketch 57.1 (83088) - https://sketch.com -->
    <title>FairTrade_logo</title>
    <desc>Created with Sketch.</desc>
    <g id="FairTrade_logo" stroke="none" stroke-width="1" fill="none" fill-rule="evenodd" opacity="0.5">
        <g id="Group-5" transform="translate(6.000000, 0.000000)">
            <path d="M43.0704308,36.1115333 C48.2407935,36.1576071 52.9475176,32.0026337 52.9708831,26.3301662 C52.9925936,21.1017715 48.7950794,16.5056661 43.0501218,16.5125205 C37.2982296,16.5193902 33.1443053,21.1164759 33.1512314,26.2987968 C33.1586701,32.0085155 37.8936287,36.1703509 43.0704308,36.1115333 M66.2434436,62.9769631 C66.2374996,62.8299191 66.2270974,62.6828751 66.2266021,62.5358311 C66.222144,60.9987311 66.0938509,59.4733946 65.8016,57.9627626 C65.2705952,55.2184313 64.1833231,52.7270157 62.3540311,50.5767422 C61.2261411,49.2508954 59.9134891,48.1294398 58.4561978,47.1707129 C55.5426058,45.2532591 52.3952131,43.8097771 49.1041718,42.6589127 C46.3258077,41.6869518 43.4820586,40.9429092 40.6100752,40.3003269 C37.891152,39.6920549 35.1722287,39.0832927 32.4840166,38.3500332 C30.824131,37.8971377 29.1805917,37.3917965 27.5969886,36.7158842 C25.1371283,35.6654999 22.9199848,34.2494661 21.0277847,32.3624014 C18.7170219,30.0577317 17.1646252,27.3315358 16.4364748,24.1568558 C16.0996434,22.6869059 15.9515366,21.1948994 16.0139495,19.6916195 C16.1947487,15.3543115 17.7486315,11.5635171 20.7107668,8.35256618 C22.0021192,6.95270725 23.5460951,5.87781558 25.2233175,4.97790627 C27.1600984,3.93830516 29.2197236,3.23641512 31.3670241,2.77469694 C33.1864092,2.38355989 35.025608,2.12427229 36.8870971,2.03996707 C38.1611125,1.9826199 39.4361186,1.98458049 40.7081526,2.06153352 C42.3249436,2.15956286 43.9298463,2.36248358 45.5193936,2.67323658 C48.6945253,3.29425242 51.7349244,4.31277723 54.6321702,5.73959422 C57.9237069,7.36050929 60.9026839,9.42451697 63.567615,11.934068 C66.5391618,14.7318252 68.9722737,17.9275816 70.8639785,21.527709 C72.5753795,24.785714 73.7572616,28.2221324 74.4046715,31.8384346 C74.6686879,33.3162268 74.8484964,34.8028417 74.9218068,36.3022004 C74.9931358,37.7657784 75.0292957,39.2303367 74.9708455,40.6944048 C74.7841022,45.3757958 73.7547849,49.8679901 71.8551546,54.1611849 C70.5147636,57.1907815 68.7954372,59.9934403 66.7031195,62.5721019 C66.5857238,62.7166952 66.4628794,62.8573673 66.3425117,63 C66.3098192,62.9921577 66.2766314,62.9843153 66.2434436,62.9769631" id="Fill-5" fill="#1A1919"></path>
            <path d="M11.6236088,14.0429347 C11.4714946,14.5210714 11.3156816,14.9982324 11.168191,15.4783207 C10.5860883,17.3713518 10.1917011,19.3058539 10.0035234,21.2876819 C9.9073539,22.301039 9.84354916,23.3158598 9.86343035,24.3336079 C9.93093391,27.7537492 10.6198401,31.0197157 12.0586832,34.0993065 C13.126719,36.3860686 14.534122,38.4161981 16.1948946,40.2604397 C18.1654437,42.4486471 20.1475517,44.625145 22.0293291,46.8997097 C23.4788063,48.6517392 24.8603175,50.4598767 26.0818546,52.3992578 C27.1253857,54.0561479 28.0302108,55.791589 28.7131064,57.6490038 C29.3442185,59.3649292 29.7570998,61.1354987 29.9216976,62.9719341 C30.1348424,65.3465172 29.9027411,67.675726 29.3483797,69.9785886 C28.9632395,71.5769314 28.4250604,73.1177026 27.785626,74.620418 C27.7333801,74.7423916 27.6709624,74.8594864 27.6034588,75 C27.4860211,74.9785326 27.3764434,74.9697505 27.2728763,74.9375495 C24.0609089,73.9427324 21.047291,72.4863669 18.2287861,70.5816264 C15.9586321,69.0471978 13.8738817,67.2688219 11.999502,65.2255193 C7.41018447,60.22216 4.3429336,54.3391267 2.86848936,47.541779 C2.46624211,45.6868037 2.21379729,43.8098731 2.08572546,41.911963 C1.98539482,40.4209571 1.973836,38.9289753 2.04735015,37.4384573 C2.28315026,32.6590416 3.35349783,28.0952754 5.27457522,23.7569165 C6.83779126,20.2255353 8.88231694,17.0356803 11.3896581,14.1746663 C11.4423664,14.1146552 11.4987735,14.0585474 11.5537935,14 C11.5769112,14.0146368 11.6004912,14.0287858 11.6236088,14.0429347" id="Fill-7" fill="#1A1919"></path>
            <g id="Group" transform="translate(0.000000, 80.000000)" fill="#1A1919">
                <path d="M61.3536405,8.39730122 C61.3952292,8.42128369 61.4208903,8.44888616 61.4474362,8.44979116 C62.292925,8.48870611 63.1397411,8.4973036 63.9777085,8.37467625 C64.7864754,8.2565739 65.4173843,7.8461569 65.760712,7.05428286 C65.8350407,6.88278557 65.8974237,6.70314329 65.9434367,6.52169101 C66.0912092,5.93887172 66.131913,5.34247745 66.096076,4.74427318 C66.0633359,4.19448635 65.9890073,3.64922451 65.7567301,3.14106763 C65.3386313,2.22837624 64.6493212,1.70121439 63.662254,1.58537453 C62.9570164,1.50256713 62.250009,1.54329208 61.5438866,1.53831458 C61.4859279,1.53831458 61.4275268,1.56184455 61.3708954,1.57451454 C61.3536405,1.63288697 61.3288643,1.67632692 61.3288643,1.71976686 C61.3262097,3.88950172 61.3248824,6.05878407 61.3253248,8.22851893 C61.3253248,8.28870136 61.3452343,8.34843128 61.3536405,8.39730122 M59.6781481,9.9724518 C59.6639903,9.86068444 59.6454081,9.77108955 59.6427535,9.68104216 C59.58391,7.78959446 59.6184197,0.480823372 59.6909787,0.0391839107 C59.7869866,0.0278714245 59.8900734,0.00569895152 59.9936026,0.00524645207 C61.1775523,0.00298395483 62.3619445,-0.00651853359 63.5458942,0.00750894931 C64.3405033,0.0170114377 65.0992752,0.18715123 65.7885853,0.623360699 C66.6946873,1.1966775 67.2795833,2.02339399 67.5884012,3.04875774 C67.9874755,4.37458113 67.9945544,5.71352699 67.6047713,7.04523287 C67.3941733,7.764707 67.0468637,8.40951871 66.500017,8.92265308 C65.8779567,9.50637737 65.1293607,9.8145295 64.2980297,9.90548189 C63.8401119,9.95570932 63.3786547,9.98647929 62.9185248,9.99281428 C61.9495973,10.0059368 60.9806698,9.99733927 60.0117423,9.99598178 C59.9077707,9.99552928 59.803799,9.98150179 59.6781481,9.9724518" id="Fill-9"></path>
                <path d="M24.9107321,1.48556472 C24.8949333,1.54531321 24.8800373,1.57564009 24.8800373,1.60596697 C24.8782317,2.61218585 24.8764262,3.61795209 24.8791345,4.62417097 C24.8791345,4.68120362 24.9143433,4.73823627 24.9364616,4.805227 C25.5286906,4.805227 26.1078291,4.81337452 26.6869677,4.80160588 C26.9514846,4.7961742 27.2205154,4.77490012 27.4791642,4.72148859 C28.2907707,4.5544644 28.7381022,4.04026528 28.7755679,3.21691299 C28.8076169,2.50898392 28.5038287,1.92553087 27.8217723,1.63267274 C27.6520481,1.55979769 27.4615599,1.52358648 27.2769397,1.49959656 C26.5438758,1.40454214 25.8062979,1.43758487 25.0700742,1.44256391 C25.0258376,1.44301655 24.981601,1.46564855 24.9107321,1.48556472 M23.23922,0 L23.6870028,0 C24.7852446,0 25.8834863,0 26.9821794,0.000452640072 C27.4543376,0.000452640072 27.9237874,0.0384744061 28.3787926,0.169287387 C29.3935264,0.459882313 30.0566242,1.12254738 30.3685375,2.12740834 C30.5387131,2.67555546 30.5599286,3.23818707 30.4484343,3.80625036 C30.2818699,4.65313994 29.802038,5.25696179 29.0504669,5.65483242 C28.8857081,5.74219195 28.7123728,5.8128038 28.545357,5.89020526 C28.5254956,6.0771456 28.6410525,6.19754786 28.7137269,6.33107669 C29.2910599,7.39478085 29.8729068,8.45576918 30.451594,9.51856807 C30.5242685,9.65254953 30.6231238,9.77838347 30.6344086,9.93182846 C30.5883664,9.96034478 30.5635397,9.98886111 30.5387131,9.98886111 C29.9586717,9.99157695 29.3786304,9.99067167 28.7778249,9.99067167 C28.7051505,9.87162733 28.6266079,9.75665675 28.5611558,9.63489657 C28.0267052,8.63727785 27.494963,7.63875385 26.9618666,6.64068249 C26.8882894,6.50307991 26.8088441,6.36864581 26.7244334,6.21882195 C26.1953996,6.21882195 25.6785534,6.21791667 25.1612558,6.22017987 C25.0854216,6.22017987 25.0100388,6.23556963 24.9080237,6.24688563 C24.8958361,6.37996181 24.875072,6.50081671 24.875072,6.62167161 C24.8723636,7.5658788 24.8732664,8.50963335 24.8732664,9.45384054 C24.8732664,9.61000137 24.8732664,9.76570955 24.8732664,9.91191229 C24.5396862,10.0187354 23.6689471,10.0291461 23.222067,9.9390707 C23.2098793,9.90059629 23.1841499,9.85759549 23.1841499,9.81414204 C23.1823443,6.60401865 23.1823443,3.3943479 23.1841499,0.184224509 C23.1841499,0.140771062 23.2094279,0.0973176155 23.23922,0" id="Fill-11"></path>
                <path d="M42.301392,1.44112806 C42.282924,1.56098849 42.2653569,1.62204946 42.2653569,1.68311044 C42.26851,2.68948572 42.2739153,3.69586101 42.2793205,4.70223629 C42.2793205,4.7158054 42.2892302,4.73118372 42.297338,4.74294361 C42.3063468,4.75606041 42.3194095,4.76555878 42.3387783,4.78500783 C42.3734621,4.79269699 42.4180555,4.81078913 42.4626488,4.81034516 C43.1049735,4.8067184 43.7472983,4.80807531 44.3891726,4.79088778 C44.5905184,4.78546014 44.7950173,4.74520513 44.990057,4.69138101 C45.3621189,4.58780351 45.681029,4.39376531 45.8949871,4.05860841 C46.5566807,3.02147649 45.9400309,1.67180285 44.7265507,1.50445055 C44.5409702,1.47866925 44.3531375,1.46283863 44.1657553,1.45288795 C43.5572134,1.4203221 42.9486715,1.43750964 42.301392,1.44112806 M40.6009882,0.0186335578 C40.7518849,0.0104920948 40.8446752,0.00189832829 40.9379159,0.00144602479 C42.0959922,0.000541417795 43.254519,-0.0017200997 44.4125953,0.00235063179 C44.8517725,0.00370754229 45.2886974,0.0435102502 45.713911,0.159299946 C46.8809961,0.478626217 47.6724159,1.39635002 47.8345736,2.59766811 C47.8809687,2.94232338 47.8926801,3.28290791 47.8413301,3.62937239 C47.6926856,4.63077234 47.1499077,5.32460591 46.2395723,5.73982052 C46.1265123,5.79093082 46.0102993,5.83435195 45.8616547,5.89541293 C45.9467875,6.06321752 46.0202089,6.2156438 46.1012878,6.36490396 C46.6773981,7.42691257 47.2553102,8.48801658 47.8309701,9.5504775 C47.8958331,9.66988563 47.9476335,9.7960783 48.0215054,9.95393223 C47.7832236,10.0109225 47.5832291,9.98514117 47.3868381,9.9887596 C47.1832401,9.99328263 46.9796421,9.9896642 46.7764945,9.9896642 L46.1368724,9.9896642 C46.05219,9.84266557 45.9634537,9.69747614 45.8832757,9.54731138 C45.3580649,8.56490818 44.8351063,7.58114807 44.3098955,6.59829256 C44.2445819,6.47571832 44.1711605,6.3567625 44.0927843,6.22197605 C43.4959538,6.21609611 42.9067808,6.19438554 42.2883293,6.23871128 C42.2788701,6.38254379 42.2640056,6.50376113 42.2640056,6.62497847 C42.2622039,7.56803127 42.2635552,8.51108406 42.2622039,9.45413686 C42.2617534,9.60927696 42.2531951,9.76396476 42.2486907,9.91096339 C41.9144657,10.0104702 41.3464632,10.0263008 40.6257623,9.95981217 C40.6090961,9.88156367 40.5888263,9.79472139 40.573061,9.70742682 C40.5672053,9.67667018 40.5712593,9.64455663 40.5712593,9.61334769 C40.5712593,6.53270856 40.5712593,3.45206942 40.5726106,0.371430287 C40.5726106,0.265591268 40.5892768,0.159299946 40.6009882,0.0186335578" id="Fill-13"></path>
                <path d="M76.9647013,0.01032281 C77.0105174,0.528482159 77.0109946,0.978760371 76.9704283,1.43084875 C76.806731,1.54126873 76.6358751,1.49827734 76.4769503,1.49872988 C74.9674042,1.50189767 73.4578581,1.50054005 71.9487893,1.50054005 L71.3927914,1.50054005 C71.3646336,1.57792454 71.327408,1.63358708 71.3269307,1.68970215 C71.3231127,2.42870147 71.32359,3.16815332 71.3264535,3.90715264 C71.3264535,3.95014403 71.352225,3.99358795 71.3760876,4.0659945 C71.7006186,4.10762827 72.029922,4.08273851 72.3573164,4.08681138 C72.7052327,4.09133679 73.0536262,4.08771646 73.4020197,4.08771646 L74.3970888,4.08771646 C74.7454823,4.08771646 75.0938759,4.08409614 75.4422694,4.08862155 C75.7701411,4.09314696 76.100399,4.06644704 76.4487925,4.11396384 C76.5461518,4.59773008 76.4822001,5.05751165 76.4922224,5.52679658 C76.0030397,5.58969977 75.5735135,5.55394903 75.145419,5.56028461 C74.7311648,5.56662018 74.3164334,5.56164223 73.9017019,5.56164223 C73.4702667,5.56164223 73.0388314,5.55847444 72.6078734,5.56254731 C72.1974372,5.56616764 71.7855693,5.54444567 71.3799056,5.5779337 C71.3541341,5.65305549 71.3269307,5.69604688 71.3269307,5.73903827 C71.3250217,6.58845757 71.3250217,7.43742433 71.3283625,8.28684363 C71.3283625,8.32983501 71.3574748,8.37327894 71.3794284,8.43482451 C71.8356807,8.50587343 72.2986145,8.4601668 72.7591621,8.46831253 C73.2230504,8.47645827 73.6878933,8.4701227 74.1522589,8.4701227 C74.5999207,8.4701227 75.0480597,8.46785999 75.4957215,8.47057524 C75.9577008,8.47329048 76.4201574,8.45790409 76.8725917,8.48188876 C76.9761553,8.8163165 76.9890411,9.47295337 76.9040903,9.96260264 C76.8172306,9.9743687 76.7222576,9.99835337 76.6277618,9.99835337 C74.3884983,10.0006161 72.1492348,10.0001635 69.9099714,9.99925845 C69.8135666,9.99925845 69.7166846,9.98794493 69.5892585,9.97979919 C69.5744637,9.84403692 69.5506011,9.72411358 69.5506011,9.60419023 C69.5472603,8.67602881 69.5486921,7.74831994 69.5486921,6.82015852 C69.5486921,4.74435333 69.5486921,2.66809561 69.5486921,0.592290428 C69.5486921,0.420777421 69.5486921,0.249716955 69.5486921,0.0935903385 C69.7438879,-0.0412668545 69.9328794,0.00941772813 70.108508,0.00896518721 C72.1487576,0.00489231897 74.18853,0.00624994172 76.2287796,0.00624994172 C76.459292,0.00624994172 76.6893272,0.00896518721 76.9647013,0.01032281" id="Fill-15"></path>
                <path d="M53.811819,1.52619093 C53.7494889,1.66674922 53.7258464,1.70710305 53.7129505,1.7515376 C53.2757797,3.27274098 52.8394686,4.79439778 52.4053069,6.3169614 C52.3906915,6.36819716 52.4035874,6.4285012 52.4035874,6.4810972 C52.9224322,6.53460003 54.8675629,6.52553176 55.200277,6.4711221 C55.1542816,6.09660228 54.3568855,3.1879526 53.9214341,1.80776092 C53.899941,1.74020226 53.8702804,1.67536408 53.811819,1.52619093 M52.8308714,0 L54.7278574,0 C54.9943725,0.652915907 55.1736254,1.33394347 55.4001633,1.99592765 C55.6228324,2.64748332 55.8265876,3.30629361 56.0380802,3.96192999 C56.2547312,4.63298245 56.4700927,5.30403491 56.6863138,5.97508737 C56.8978065,6.63072376 57.1123082,7.28545333 57.3207918,7.94244996 C57.5327143,8.60896828 57.7704286,9.26732515 57.9569892,9.96331537 C57.8529624,9.97963827 57.7957906,9.99596117 57.7381889,9.99641458 C57.2610408,9.99868165 56.7834629,9.99777482 56.2818126,9.99777482 C56.2349575,9.8758065 56.183374,9.76608036 56.1498446,9.65091325 C56.0238947,9.21382232 55.9056824,8.77491774 55.7805922,8.33782681 C55.7509316,8.23399505 55.7079453,8.13469742 55.674416,8.042201 C55.3107518,7.97645599 52.3485649,7.97101503 51.914833,8.03766686 C51.7325711,8.66700525 51.5460105,9.31221312 51.3615992,9.94744589 C50.9983648,10.0140977 50.0874848,10.0172716 49.6988886,9.95742099 C49.6356987,9.79101812 49.7276894,9.65000642 49.7732549,9.50536741 C50.1085481,8.44483247 50.4489997,7.38611119 50.7877319,6.3269365 C51.4179112,4.35776026 52.0472309,2.38813061 52.67827,0.418954373 C52.7208264,0.286557537 52.7732697,0.157334597 52.8308714,0" id="Fill-17"></path>
                <path d="M13.8448428,6.51381144 C13.8220045,6.3830844 13.8164026,6.32111345 13.800028,6.2623089 C13.3695472,4.74243739 12.9386356,3.22256588 12.5042766,1.7040514 C12.4913493,1.65881713 12.4409326,1.62534377 12.3974105,1.57468139 C12.0091591,2.68201634 11.0503807,6.10896472 11.0223714,6.5133591 C11.9488315,6.51562081 12.873137,6.51516847 13.8448428,6.51381144 M16.5445043,9.94664027 C16.2049459,10.0031831 15.3142515,10.0086112 14.8678271,9.95252073 C14.6842587,9.32240733 14.4963812,8.67962834 14.3011782,8.01151816 C13.8771612,7.9653792 13.4596078,7.99432913 13.0433471,7.98935336 C12.639152,7.98392525 12.2345259,7.98799634 11.8303308,7.98799634 L10.5552632,7.98799634 C10.3100745,8.63394173 10.1885574,9.29888551 9.970947,9.92492782 C9.65681241,10.0081589 9.02509592,10.0230862 8.30418072,9.96518632 C8.24126762,9.82676945 8.31409169,9.70056584 8.35459738,9.57390988 C8.69975762,8.486478 9.04577968,7.39904613 9.39438721,6.31297128 C10.01964,4.3633742 10.6470474,2.4146818 11.2748857,0.465989405 C11.322286,0.319430366 11.3774426,0.175585385 11.4252738,0.0416919423 C11.7984433,-0.00942278396 12.8929589,-0.0139462111 13.3208542,0.0303833745 C13.3324888,0.0398825715 13.3449853,0.0489294257 13.3557581,0.0597856507 C13.3660999,0.0706418758 13.3794582,0.0819504435 13.3837673,0.0955207248 C14.4412245,3.3329375 15.4982508,6.57125897 16.5535535,9.80958043 C16.5630335,9.83717333 16.5578626,9.87109904 16.5565698,9.90185834 C16.5561389,9.91678565 16.5488134,9.93171296 16.5445043,9.94664027" id="Fill-19"></path>
                <path d="M1.93667821,9.98022022 C1.26808763,10.0146314 0.668110118,9.99289803 0.122300828,9.99652027 C0.0557513024,9.93765898 0.0397587807,9.92815062 0.0309886881,9.91502002 C0.0222185955,9.90188943 0.0170597176,9.8851366 0.0170597176,9.87019489 C0.010869064,6.73922722 0.00467841042,3.60825955 0,0.476839104 C-0.00048046755,0.367266555 0.00467841042,0.256788448 0.0129326152,0.147215899 C0.0149961664,0.118690814 0.0382111173,0.0910712869 0.0660690583,0.0331155585 C0.131070921,0.024059976 0.215160632,0.00187379869 0.299250343,0.00142101957 C2.57637908,-0.000390096945 4.85350782,-0.000390096945 7.13063656,0.000968240438 C7.21627393,0.000968240438 7.30191131,0.0181738473 7.37774681,0.0263238716 C7.47421783,0.414808363 7.47628138,1.0518686 7.38342158,1.46480316 C6.80614313,1.5268339 6.21699927,1.48517822 5.63095073,1.49242269 C5.02117135,1.50011993 4.41190786,1.4942338 3.80212849,1.4942338 C3.21143696,1.4942338 2.62022954,1.4942338 2.0176726,1.4942338 C1.98671933,1.5703007 1.94390064,1.62644531 1.94390064,1.68258992 C1.93977354,2.46952005 1.94028943,3.25599739 1.94286887,4.04292751 C1.94338475,4.08684709 1.96866326,4.13076666 1.99187821,4.205928 C2.14303333,4.21588914 2.29883145,4.23400031 2.45462956,4.23400031 C3.6917285,4.23671698 4.92882744,4.23535864 6.16592638,4.23535864 L6.70451324,4.23535864 C6.83090575,4.48529272 6.77003099,4.72254898 6.77931697,4.95165522 C6.78757117,5.1689892 6.77622164,5.38677597 6.77312631,5.63535171 C6.5832796,5.64757674 6.42851326,5.66614069 6.27323104,5.66614069 C5.0361321,5.66885736 3.79903316,5.66749902 2.56193422,5.6679518 C2.38395293,5.6679518 2.20648753,5.66749902 2.05945951,5.66749902 C1.89128009,5.81103001 1.93977354,5.9608999 1.93925765,6.09628086 C1.93513055,7.19789248 1.93667821,8.29950409 1.93667821,9.40111571 C1.93667821,9.57317178 1.93667821,9.74522785 1.93667821,9.98022022" id="Fill-21"></path>
                <path d="M36.0006706,10 L34.366453,10 C34.2340489,9.88660717 34.2720109,9.75235006 34.271548,9.63170009 C34.2678444,8.90643955 34.2696962,8.18117902 34.2696962,7.45546491 C34.2692332,5.67383678 34.2696962,3.89175507 34.2692332,2.11012694 C34.2687703,1.93958412 34.2627519,1.76904131 34.2590483,1.58262349 C33.7845234,1.48782709 33.3354607,1.54497708 32.8901017,1.53499851 C32.4410391,1.52456637 31.9915135,1.53273065 31.5401361,1.53273065 C31.4169911,1.26648429 31.4794895,1.01248435 31.4697676,0.766648695 C31.4605085,0.533059466 31.4706935,0.298563095 31.4725453,0.0468310144 C31.579024,0.0273274478 31.6544851,0.00192745399 31.7299461,0.00192745399 C34.0317393,-0.000340402592 36.3330695,-0.000340402592 38.6348627,0.000566740042 C38.697824,0.000566740042 38.7612483,0.0132667369 38.8390241,0.0214310206 C38.9626321,0.259555962 38.8936524,0.514463042 38.9038373,0.758937982 C38.9135593,0.992527211 38.9015225,1.22657001 38.8987448,1.48873423 C38.7631001,1.50551637 38.6566214,1.53000922 38.5506056,1.53046279 C37.8904372,1.53409136 37.2307318,1.53136994 36.5710264,1.53363779 C36.4126971,1.53409136 36.2543678,1.5445235 36.0853906,1.55132707 C35.9941893,1.73184846 36.0261329,1.90692699 36.0256699,2.0742948 C36.0233552,3.72983011 36.0242811,5.38581899 36.0242811,7.0413543 C36.0242811,7.86141124 36.025207,8.68146818 36.0233552,9.50152512 C36.0228922,9.65483223 36.0099296,9.8085929 36.0006706,10" id="Fill-23"></path>
                <path d="M19.8155764,9.9969448 C19.2806216,9.9946833 18.78045,10.0114185 18.2538608,9.98428036 C18.2393311,9.83637777 18.2177568,9.71651788 18.2173166,9.59620568 C18.2137942,8.96795892 18.2155554,8.33971215 18.2151151,7.71101309 C18.2151151,5.35497464 18.2151151,2.99848389 18.2151151,0.64244544 L18.2151151,0.0915422288 C18.5440132,-0.0102256059 19.134885,-0.0269607609 19.8111735,0.0404321607 C19.8287851,0.119584921 19.8574041,0.205974505 19.8653294,0.294173295 C19.8754561,0.403177954 19.8688517,0.513991818 19.8688517,0.623901079 C19.8688517,3.54576869 19.869292,6.4676363 19.8675308,9.38950391 C19.8675308,9.57449521 19.890426,9.76355724 19.8155764,9.9969448" id="Fill-25"></path>
            </g>
            <path d="M42.0094589,34.9993718 C36.7855506,35.0593909 32.0075065,30.8125395 32,24.9861855 C31.9930109,19.6980028 36.1847337,15.0070101 41.9889651,15 C47.7861987,14.9930056 52.021908,19.682998 52,25.0181957 C51.9764219,30.8065376 47.2268691,35.0463867 42.0094589,34.9993718" id="Fill-27" fill="#FFFFFE"></path>
            <g id="Group-4" transform="translate(69.000000, 0.000000)" fill="#1A1919">
                <path d="M8.68640953,4.65343724 C8.76700654,2.59073453 7.01927248,0.601004805 4.68195905,0.573761562 C2.63674874,0.549437237 0.606680896,2.1528967 0.570534356,4.5648967 C0.536341683,6.87668048 2.37932676,8.67522102 4.62480844,8.67668126 C7.09058863,8.67813994 8.75088714,6.61738318 8.68640953,4.65343724 M0.000982117255,4.59651832 C0.000493650498,2.1528967 1.94556828,-0.0236438437 4.68488985,0.000193994096 C7.42323449,0.0240318319 9.30676231,2.25019399 9.28087357,4.68846426 C9.25596176,6.97592372 7.45010016,9.24197778 4.55788849,9.26241021 C1.62269175,9.12619399 -0.0463991582,6.80808589 0.000982117255,4.59651832" id="Fill-41"></path>
                <path d="M4.20150315,4.43432372 C4.42473246,4.41778318 4.71341631,4.3992967 5.00112323,4.37497237 C5.16280573,4.36086426 5.30836882,4.29178318 5.40801604,4.16918859 C5.57116394,3.96875616 5.62733761,3.73378318 5.53843666,3.48324264 C5.44074331,3.20935075 5.24731048,3.03908048 4.94983422,3.01475616 C4.77300925,3.00016156 4.59423042,3.00356697 4.41594005,3.00551291 C3.22847737,3.01767508 3.41946787,2.86345886 3.40383693,4.03881021 C3.40286,4.10497237 3.4160486,4.17113453 3.42386407,4.23681021 C3.43314494,4.3127021 3.52155742,4.39783724 3.6026429,4.40318859 C3.77995634,4.41437778 3.95775824,4.42167508 4.20150315,4.43432372 M3.29881658,7.38826967 C3.02625213,7.44081021 2.75857235,7.42572913 2.49138103,7.40626967 C2.40883015,7.40043183 2.3272562,7.31626967 2.31797533,7.22967508 C2.308206,7.14162102 2.29697126,7.05259399 2.2964828,6.96405345 C2.29550586,5.47005345 2.2950174,3.97605345 2.29697126,2.48205345 C2.29697126,2.39351291 2.2994136,2.30010751 2.32921007,2.21935075 C2.34826027,2.16632372 2.41322635,2.11281021 2.46891156,2.09481021 C2.55146244,2.06853994 2.64475959,2.06659399 2.73317208,2.06659399 C3.44975281,2.06464805 4.16633354,2.06221562 4.88291427,2.06708048 C5.08416258,2.06853994 5.28834168,2.07583724 5.48470532,2.11232372 C6.29556014,2.26313453 6.67558727,2.90189129 6.68584508,3.51486426 C6.69366054,3.98918859 6.56372839,4.39345886 6.17930505,4.69556697 C6.12703911,4.73643183 6.07672703,4.78021562 6.02690342,4.82156697 C6.50267004,5.36935075 6.53539731,5.45594535 6.54418972,6.15891832 C6.54516665,6.24794535 6.54614358,6.33745886 6.54418972,6.42648589 C6.53686271,6.71837778 6.53930505,7.00735075 6.71906081,7.26178318 C6.74739189,7.30118859 6.66972567,7.40724264 6.61599433,7.40772913 C6.32486814,7.41113453 6.03423042,7.41551291 5.74310423,7.41210751 C5.60731048,7.41016156 5.49984779,7.30459399 5.48714765,7.15232372 C5.46663205,6.90859399 5.45002418,6.6634048 5.45002418,6.4187021 C5.45002418,6.19345886 5.41876231,5.97502643 5.36551943,5.75805345 C5.31178809,5.54010751 5.16475959,5.41362102 4.95423042,5.36253994 C4.82478673,5.33091832 4.68996991,5.30756697 4.55710695,5.30367508 C4.26646923,5.29637778 3.97534304,5.30026967 3.68421685,5.30562102 C3.50104182,5.30902643 3.41262934,5.4034048 3.4087216,5.6052967 C3.4013946,5.96189129 3.4043254,6.31848589 3.3999292,6.67556697 C3.39748687,6.85362102 3.395533,7.03216156 3.37990206,7.20924264 C3.3750174,7.26956697 3.32812459,7.3259994 3.29881658,7.38826967" id="Fill-42"></path>
            </g>
        </g>
    </g>
</svg>