<?xml version="1.0" encoding="UTF-8"?>
<svg width="90px" height="90px" viewBox="0 0 90 90" version="1.1" xmlns="http://www.w3.org/2000/svg" xmlns:xlink="http://www.w3.org/1999/xlink">
    <!-- Generator: Sketch 57.1 (83088) - https://sketch.com -->
    <title>GOTS_logo</title>
    <desc>Created with Sketch.</desc>
    <g id="GOTS_logo" stroke="none" stroke-width="1" fill="none" fill-rule="evenodd" opacity="0.5">
        <g id="global-organic-textile-standard-gots-vector-logo-2-copy" transform="translate(0.061224, 0.000000)" fill-rule="nonzero">
            <g id="global-organic-textile-standard-gots-vector-logo" transform="translate(0.938776, 0.000000)">
                <g id="Group" transform="translate(0.087911, 0.000000)">
                    <path d="M44.0961612,10.9708251 C25.7768646,10.9708251 10.9494646,26.0378998 10.9494646,44.6135014 C10.9494646,63.2069128 25.7944119,78.2561778 44.0961612,78.2561778 C62.3979106,78.2561778 77.2428578,63.189103 77.2428578,44.6135014 C77.2428578,26.0378998 62.3979106,10.9708251 44.0961612,10.9708251" id="Path" fill="#000000"></path>
                    <path d="M20.354774,74.8366998 C21.8638348,76.0299552 22.2498736,77.7575039 21.0215683,79.3425744 C19.8459046,80.8564058 17.9858994,80.8920254 16.5470275,79.7521994 C16.0732526,79.378194 15.5819304,78.8795201 15.2485333,78.3808463 L15.9153276,77.6150257 C16.1434414,78.0958898 16.511933,78.5055147 16.9155191,78.8439006 C17.950805,79.6631505 19.1264687,79.538482 19.9336407,78.4877049 C20.6706239,77.5437865 20.7759072,76.4039606 19.7581685,75.6025204 C19.5125075,75.4066128 19.2492992,75.2463248 18.9334492,75.1394661 L18.1438244,76.1546236 L18.7579771,76.6532975 L18.2140133,77.347879 L16.669858,76.1190041 L18.4421271,73.8215423 C19.1615631,74.0352597 19.7757158,74.3914553 20.354774,74.8366998" id="Path" fill="#1C1C1B"></path>
                    <polygon id="Path" fill="#1C1C1B" points="16.8453302 71.7912273 12.4058838 75.8162378 11.5285228 74.8188901 15.1783444 71.5062708 13.4762642 69.5650047 14.265889 68.8526134"></polygon>
                    <path d="M12.019845,65.3797061 C13.0375837,67.018206 12.5462615,68.5498471 10.9845591,69.5471949 C9.45795101,70.5267328 7.82605965,70.3130155 6.82586817,68.7101352 C5.80812947,67.0716353 6.28190438,65.5399941 7.86115409,64.5248366 C9.40530936,63.5274889 11.0196535,63.759016 12.019845,65.3797061 M7.61549302,68.2114613 C8.22964569,69.208809 9.44040379,68.888233 10.2651231,68.3539395 C11.0722952,67.8374559 11.8794672,66.8579179 11.2653146,65.8605702 C10.6336147,64.8454127 9.45795101,65.1659887 8.6156845,65.7002822 C7.75587078,66.2523854 6.96624592,67.1963038 7.61549302,68.2114613" id="Shape" fill="#1C1C1B"></path>
                    <path d="M8.73851504,59.0572339 L9.54568711,61.1053587 L4.00076592,63.3493911 L3.10585775,61.0519293 C2.73736616,60.1258207 2.6847245,59.0750436 3.75510486,58.6476089 C4.45699361,58.3626524 5.07114628,58.6119893 5.49227953,59.2353317 C5.33435456,58.4873209 5.56246841,57.7571198 6.31699882,57.4543536 C7.61549302,56.9200601 8.31738178,57.9530274 8.73851504,59.0572339 M4.01831314,61.1409782 L4.29906864,61.8355597 L5.87831835,61.1944076 L5.6502045,60.588875 C5.43963787,60.0367718 5.03605184,59.5380979 4.38680474,59.8052447 C3.80774651,60.0545816 3.82529373,60.6423044 4.01831314,61.1409782 M6.3871877,60.3751576 L6.59775432,60.9094511 L8.334929,60.2148696 L8.10681515,59.6271468 C7.87870131,59.0572339 7.45756805,58.4517013 6.77322651,58.7366578 C6.00114888,59.0394241 6.14152663,59.7696251 6.3871877,60.3751576" id="Shape" fill="#1C1C1B"></path>
                    <path d="M6.47492379,50.7044466 L5.10624071,51.5236965 L5.61511006,54.0526854 L7.17681255,54.2842125 L7.44002083,55.5843266 L1.14056923,54.5157397 L0.789624853,52.7881909 L6.19416829,49.3330934 L6.47492379,50.7044466 Z M1.80736355,53.5005822 L4.68510746,53.9636365 L4.29906864,51.9867508 L1.80736355,53.5005822 Z" id="Shape" fill="#1C1C1B"></path>
                    <polygon id="Path" fill="#1C1C1B" points="6.14152663 47.4808762 0.175472189 47.6233544 0.140377752 46.2876209 5.05359906 46.1629524 4.98341018 43.5627244 6.03624332 43.5449146"></polygon>
                    <path d="M7.44002083,34.9427904 C6.9486987,36.8128174 5.50982675,37.489589 3.72001042,37.008725 C1.96528852,36.5278609 1.0177387,35.1743175 1.49151361,33.3399101 C1.98283574,31.4698831 3.4217077,30.7753016 5.21152403,31.2561657 C7.00134036,31.7548396 7.93134296,33.1083829 7.44002083,34.9427904 M2.38642178,33.589247 C2.08811905,34.729073 3.14095219,35.4058447 4.0709548,35.6551816 C5.0009574,35.9045185 6.24680995,35.8332794 6.54511267,34.7112632 C6.84341539,33.5536274 5.82567669,32.8946655 4.86057965,32.6275188 C3.91302983,32.3781819 2.70227172,32.4138015 2.38642178,33.589247" id="Shape" fill="#1C1C1B"></path>
                    <path d="M10.3177647,27.0708671 L8.51040119,26.8927693 C7.89624853,26.8215302 7.6856819,26.8749596 7.38737918,27.4626823 L7.17681255,27.9079269 L9.40530936,28.9943235 L8.84379835,30.1875788 L3.45680213,27.569541 L4.50963527,25.3433184 C4.94831574,24.4172098 5.7379406,23.6513892 6.80832095,24.1856826 C7.54530415,24.5418782 7.73832356,25.3255086 7.51020971,26.0735194 C7.84360687,25.6282749 8.17700403,25.539226 8.72096782,25.5926553 L10.896823,25.7885629 L10.3177647,27.0708671 Z M5.10624071,26.1803781 L4.82548521,26.7681009 L6.3871877,27.5339215 L6.65039598,26.9818182 C6.91360427,26.429715 7.01888758,25.7707531 6.3871877,25.4501771 C5.75548782,25.129601 5.38699622,25.5926553 5.10624071,26.1803781 L5.10624071,26.1803781 Z" id="Shape" fill="#1C1C1B"></path>
                    <path d="M13.6868308,21.8526013 C12.5638088,23.419862 10.8792757,23.8651066 9.28247882,22.7074708 C7.75587078,21.5854546 7.65058746,19.679808 8.72096782,18.1837864 C9.0719122,17.6851126 9.54568711,17.1864387 10.019462,16.8302431 L10.7915397,17.4713952 C10.3177647,17.7207321 9.93172593,18.1125473 9.6334232,18.539982 C8.86134557,19.6263787 9.03681776,20.8018242 10.0896509,21.5854546 C11.0547479,22.2978458 12.17777,22.3512752 12.9323004,21.3004981 C13.1253198,21.0333514 13.2656975,20.7662047 13.3534336,20.4456286 L12.3181477,19.679808 L11.86192,20.3209601 L11.1600313,19.8044765 L12.3181477,18.1837864 L14.6519278,19.8935254 C14.423814,20.6237264 14.107964,21.2648785 13.6868308,21.8526013" id="Path" fill="#1C1C1B"></path>
                    <path d="M19.4072242,15.4410801 L18.0034466,14.6930693 L16.1434414,16.4562377 L16.7751413,17.9344495 L15.8275915,18.8427483 L13.4060753,12.8408521 L14.669475,11.629787 L20.4074156,14.4615422 L19.4072242,15.4410801 Z M14.5992862,12.8764717 L15.7223082,15.6013682 L17.1787274,14.2122053 L14.5992862,12.8764717 Z" id="Shape" fill="#1C1C1B"></path>
                    <polygon id="Path" fill="#1C1C1B" points="24.6538426 11.6654066 20.2143962 8.65555357 22.7938374 12.8408521 21.7936459 13.4820042 18.6526937 8.33497752 20.2845851 7.30201022 24.7415787 10.329673 22.1621375 6.10875489 23.162329 5.48541255 26.3032812 10.6324393"></polygon>
                    <polygon id="Path" fill="#1C1C1B" points="28.6019669 9.59947197 26.2506395 4.02501051 27.4789449 3.49071708 29.812725 9.06517854"></polygon>
                    <path d="M34.9716074,7.46229825 C33.1116022,7.9787819 31.5323525,7.26639066 31.0059359,5.32512452 C30.5146138,3.49071708 31.5849941,1.92345635 33.339716,1.44259226 C33.7959437,1.3179238 34.3750019,1.24668467 34.8312296,1.24668467 L35.0417962,2.22622263 C34.6557574,2.17279328 34.1819825,2.20841285 33.7959437,2.31527153 C32.5676384,2.65365737 32.0236746,3.72224423 32.3395245,4.93330934 C32.6729217,6.17999401 33.6204715,6.80333635 34.8838713,6.44714073 C35.3050045,6.32247226 35.7085906,6.14437445 36.0419877,5.85941795 L36.3402904,6.78552657 C35.9893461,7.10610263 35.4453823,7.33762978 34.9716074,7.46229825" id="Path" fill="#1C1C1B"></path>
                    <polygon id="Path" fill="#1C1C1B" points="45.6403165 1.30011401 45.517486 6.2868527 44.1838973 6.25123314 44.3067278 1.26449445 42.4291754 1.22887489 42.4642699 0.160288029 47.5354161 0.267146715 47.5003217 1.35354336"></polygon>
                    <polygon id="Path" fill="#1C1C1B" points="49.1497603 6.55399941 50.2201406 0.605532555 54.0454344 1.30011401 53.8699622 2.22622263 51.3256154 1.74535854 51.0448599 3.31261927 53.4839234 3.75786379 53.3084512 4.66616263 50.886935 4.20310832 50.5886322 5.87722774 53.2031679 6.35809182 53.0452429 7.26639066"></polygon>
                    <polygon id="Path" fill="#1C1C1B" points="58.6077113 9.15422744 58.0462003 6.32247226 55.7650618 8.08564058 54.413926 7.56915693 57.5373309 5.37855387 56.6950644 1.97688569 58.1163892 2.51117912 58.6428057 5.05797781 60.6607359 3.45509752 61.9767773 3.95377139 59.1341279 5.98408642 60.0816777 9.68852087"></polygon>
                    <polygon id="Path" fill="#1C1C1B" points="65.9249016 7.31982 63.4858382 11.6475968 62.3277217 10.9708251 64.7667851 6.6608581 63.152441 5.71693971 63.6613103 4.79083109 68.0656623 7.33762978 67.5392457 8.26373839"></polygon>
                    <polygon id="Rectangle" fill="#1C1C1B" transform="translate(68.871053, 11.702744) rotate(-52.749656) translate(-68.871053, -11.702744) " points="65.8644823 11.0626206 71.8871124 11.0196081 71.8776244 12.3428672 65.8549943 12.3858796"></polygon>
                    <polygon id="Path" fill="#1C1C1B" points="69.7151009 16.2959496 73.9264334 12.0216022 74.8739833 12.9655206 71.3996339 16.4918572 73.2245447 18.3262647 72.4700143 19.0920853"></polygon>
                    <polygon id="Path" fill="#1C1C1B" points="73.5754891 20.4278188 78.3658798 16.8302431 80.6821127 20.0003841 79.9451295 20.5524873 78.4009743 18.4331234 77.1551217 19.3770417 78.6115409 21.389547 77.8921049 21.9416502 76.4181385 19.929145 75.0845499 20.9264927 76.6637996 23.1170958 75.9268164 23.669199"></polygon>
                    <path d="M79.5239963,31.1314972 C79.3134296,30.5437744 79.1555047,29.9204321 79.1204102,29.2970898 L80.0855073,28.9765137 C80.0153184,29.5642365 80.1381489,30.1341495 80.3311683,30.6862527 C80.5241878,31.2205461 80.9102266,31.7014102 81.506832,31.4876928 C81.9279653,31.3274048 81.9455125,30.6328233 81.9630597,30.169769 L81.9981541,29.4929974 C82.0332486,28.709367 82.2438152,28.0682149 83.0158928,27.7832584 C84.226651,27.3202041 85.0864647,28.4422203 85.4549563,29.4751876 C85.6304285,29.9560517 85.753259,30.4547255 85.8059007,30.9712092 L84.8758981,31.2739755 C84.8934453,30.8109212 84.788162,30.3122473 84.630237,29.8670028 C84.4547648,29.4039485 84.0862732,28.7984159 83.5247622,29.0121333 C83.1387234,29.1546115 83.1211762,29.7245245 83.1036289,30.1519593 L83.0860817,30.8465407 C83.0685345,31.7014102 82.8930623,32.3959917 82.0157014,32.7343775 C80.8224905,33.1974318 79.9275823,32.2535134 79.5239963,31.1314972" id="Path" fill="#1C1C1B"></path>
                    <polygon id="Path" fill="#1C1C1B" points="86.2621284 36.7237685 81.4541904 37.7211162 81.1909821 36.4031924 85.9989201 35.4058447 85.6304285 33.5358177 86.6481672 33.3221003 87.6659059 38.3622683 86.63062 38.5759857"></polygon>
                    <path d="M82.1385319,45.3258927 L83.6124983,44.7381699 L83.5247622,42.1735614 L82.0157014,41.6748876 L81.9806069,40.3569638 L88.0168502,42.4585179 L88.0694919,44.2216863 L82.1911736,46.7328654 L82.1385319,45.3258927 Z M87.192131,43.349007 L84.4372176,42.4228984 L84.5074065,44.4532134 L87.192131,43.349007 Z" id="Shape" fill="#1C1C1B"></path>
                    <polygon id="Path" fill="#1C1C1B" points="81.4892848 51.7730334 86.6481672 50.3660607 81.8402292 49.5824304 82.0157014 48.4069848 87.9115669 49.368713 87.595717 51.3099791 82.4368346 52.7347616 87.2447726 53.518392 87.0517532 54.6938375 81.1734349 53.7321093"></polygon>
                    <path d="M79.8047518,58.0598861 L80.5066405,56.1542395 L86.0866562,58.3092231 L85.2970313,60.4107772 C84.6126898,62.2451847 83.2615539,62.9219563 81.4366431,62.2273749 C79.5415435,61.4793641 79.1204102,59.9121033 79.8047518,58.0598861 M84.5249537,59.8764838 L84.7706147,59.2175219 L80.8926794,57.7215003 L80.7172072,58.1845546 C80.2434323,59.4668588 80.6470183,60.3751576 81.9279653,60.8738315 C83.0509873,61.319076 84.068726,61.0875489 84.5249537,59.8764838" id="Shape" fill="#1C1C1B"></path>
                    <path d="M75.7162498,66.3058147 L77.260405,66.6263908 L78.5764465,64.4179779 L77.576255,63.1712933 L78.2430493,62.0314673 L82.1736263,67.1428744 L81.2787182,68.6567058 L74.9968138,67.4990701 L75.7162498,66.3058147 Z M81.0155099,67.4456407 L79.2081463,65.1303692 L78.1728604,66.8579179 L81.0155099,67.4456407 Z" id="Shape" fill="#1C1C1B"></path>
                    <path d="M71.8032199,71.2569338 L73.487753,71.9337055 C74.0668112,72.1652327 74.2773778,72.1830425 74.7160583,71.6843686 L75.0319082,71.3103632 L73.171903,69.6540536 L74.0317167,68.6745156 L78.5062576,72.6817163 L76.8919134,74.5339336 C76.2251191,75.3175639 75.2600221,75.8162378 74.3651139,75.0147976 C73.7509612,74.4626944 73.7860557,73.6612543 74.1896417,73.0022924 C73.7509612,73.3406782 73.4000169,73.3228684 72.8911475,73.1269609 L70.8381229,72.3433305 L71.8032199,71.2569338 Z M76.5760635,73.5543956 L76.9971967,73.0735315 L75.6987025,71.9158957 L75.2951165,72.3789501 C74.8915305,72.8420044 74.610775,73.4475369 75.1371915,73.928401 C75.6811553,74.3736455 76.1549302,74.0352597 76.5760635,73.5543956 L76.5760635,73.5543956 Z" id="Shape" fill="#1C1C1B"></path>
                    <path d="M67.960379,74.8545096 L69.5396287,73.5900152 L73.2245447,78.3452267 L71.48737,79.7343896 C69.9783092,80.9454547 68.4692483,80.838596 67.2584902,79.2713353 C66.0126377,77.6506452 66.4337709,76.0833845 67.960379,74.8545096 M71.083784,78.8795201 L71.6277477,78.4520854 L69.0658538,75.1572759 L68.679815,75.4600422 C67.6094346,76.3149117 67.5041513,77.2944496 68.3464178,78.398656 C69.1009482,79.3425744 70.1011397,79.6809603 71.083784,78.8795201" id="Shape" fill="#1C1C1B"></path>
                </g>
                <g id="Group" transform="translate(31.547568, 81.313570)" fill="#1C1C1B">
                    <path d="M2.57306877,6.44337443 C0.730195193,5.95331497 -0.312940797,4.50128693 0.173855998,2.50474837 C0.625881594,0.598961567 2.31228478,-0.235954557 4.08561596,0.235954557 C4.65934075,0.381157361 5.30260795,0.653412618 5.80679034,0.980118927 L5.51123515,1.97838821 C5.11136635,1.6153812 4.60718395,1.39757699 4.12038716,1.25237419 C2.85123837,0.925667876 1.82548798,1.54277979 1.51254718,2.86775538 C1.21699199,4.06567851 1.58208958,5.17284989 2.81646717,5.4995562 C3.12940797,5.59030796 3.42496317,5.62660866 3.75528956,5.59030796 L4.06823036,4.30163307 L3.30326397,4.10197921 L3.51189117,3.23076239 L5.40692155,3.72082185 L4.71149755,6.62487794 C3.98130236,6.69747934 3.26849277,6.62487794 2.57306877,6.44337443" id="Path"></path>
                    <path d="M9.9445631,7.58684651 C8.06691832,7.45979406 7.14548153,6.15296882 7.26718073,4.22903167 C7.38887993,2.35954557 8.50155832,1.14347208 10.3444319,1.27052454 C12.2220767,1.39757699 13.1608991,2.70440223 13.0391999,4.62833938 C12.9001151,6.51597583 11.7874367,7.71389897 9.9445631,7.58684651 M10.2575039,2.23249311 C9.11005431,2.15989171 8.67541431,3.35781484 8.60587191,4.33793377 C8.53632952,5.33620305 8.84927031,6.57042688 9.9793343,6.66117864 C11.1441695,6.73378004 11.5788095,5.57215761 11.6309663,4.55573798 C11.7178943,3.521168 11.4397247,2.30509451 10.2575039,2.23249311" id="Shape"></path>
                </g>
                <polygon id="Path" fill="#1C1C1B" points="48.5961163 83.8367246 49.078785 88.7935598 47.7859224 88.9367175 47.3032537 83.9798823 45.4932461 84.1588294 45.3898171 83.0851467 50.3199331 82.5840948 50.4233621 83.6398828"></polygon>
                <g id="Group" transform="translate(16.446933, 22.869442)">
                    <path d="M38.6176775,65.1830874 C38.0376214,65.3431114 37.4224103,65.4320136 36.8247767,65.3964527 L36.6138472,64.4185286 C37.1763259,64.5429917 37.7388046,64.4896503 38.2837058,64.3474068 C38.8110296,64.2051633 39.3207759,63.867335 39.1625788,63.2628001 C39.057114,62.8182891 38.3891706,62.7471674 37.9321566,62.6760456 L37.2993681,62.569363 C36.5611148,62.4626804 35.9634812,62.1781933 35.7525517,61.4136345 C35.4361575,60.1690038 36.5962698,59.4577863 37.6157624,59.1732992 C38.0903538,59.0488362 38.5825226,58.9777144 39.0746915,58.9777144 L39.2680435,59.9378581 C38.8286071,59.8667363 38.3364382,59.9200777 37.8970017,60.0267603 C37.4399878,60.1512234 36.8247767,60.4534908 36.9653964,61.0224648 C37.0708611,61.4136345 37.6157624,61.5025367 38.0200439,61.5380976 L38.6879874,61.6092193 C39.514128,61.7159019 40.1644939,61.9648281 40.3930009,62.85385 C40.7269726,64.0984807 39.7250575,64.88082 38.6176775,65.1830874" id="Path" fill="#1C1C1B"></path>
                    <polygon id="Rectangle" fill="#1C1C1B" transform="translate(9.463279, 59.453971) rotate(-64.703425) translate(-9.463279, -59.453971) " points="8.84532418 58.769755 10.0873494 58.7642658 10.081233 60.1381862 8.83920772 60.1436753"></polygon>
                    <polygon id="Path" fill="#1C1C1B" points="45.1916472 60.2934669 44.6819009 59.1910797 45.912323 58.5865448 46.4396468 59.7067124"></polygon>
                    <path d="M0.0878872953,19.0072887 L8.13836354,27.1507295 L15.6263611,19.5762628 L15.6263611,43.6865373 L27.0165546,43.6865373 L27.0165546,8.26790389 L18.8606136,0.0177804385 L0.0878872953,19.0072887 Z M36.4556501,0.0355608769 L28.3172865,8.26790389 L28.3172865,43.6865373 L39.70748,43.6865373 L39.70748,19.5762628 L47.1779001,27.1329491 L55.2283763,18.9895083 L36.4556501,0.0355608769 Z" id="Shape" fill="#FFFFFF"></path>
                </g>
            </g>
        </g>
    </g>
</svg>