<?xml version="1.0" encoding="UTF-8"?>
<svg width="128px" height="140px" viewBox="0 0 128 140" version="1.1" xmlns="http://www.w3.org/2000/svg" xmlns:xlink="http://www.w3.org/1999/xlink">
    <!-- Generator: Sketch 57.1 (83088) - https://sketch.com -->
    <title>Organic</title>
    <desc>Created with Sketch.</desc>
    <g id="Organic" stroke="none" stroke-width="1" fill="none" fill-rule="evenodd">
        <g id="Group-13">
            <path d="M13.6077232,99.974403 C4.91328733,79.1819326 8.25705956,88.2710049 0.718510127,44.9347681 C-1.64142289,31.3684159 1.25155307,9.26612965 17.8720408,2.5385523 C24.7226332,-0.234404209 34.6343024,-0.244237359 41.4461131,0.243749721 C46.6358501,0.615534071 54.1687065,3.03639246 59.1266672,4.91718329 C91.4339788,17.1728864 111.128732,38.1011349 122.569222,66.5499223 C125.112589,72.8744518 127.318735,85.2953292 127.646937,89.7096148 C128.207294,97.2463906 128.080634,104.836483 127.408693,112.366337 C126.70125,120.294035 114.903583,128.229108 107.964842,127.066876 C97.1670026,125.25825 95.5095057,123.217101 90.3471484,116.838583 C85.1847911,110.460064 83.4377117,110.233198 79.0871358,111.289143 C74.1898158,112.477789 71.7102574,117.352316 71.6606773,121.470102 C71.4964988,135.105684 71.4854881,143.095897 44.8489038,138.864496 C39.083322,137.948594 37.0654418,136.130795 33.1581277,132.981837 C29.3687844,129.927954 27.8017984,128.209038 24.9158658,123.842446 C21.2479639,118.292686 17.983542,112.547965 14.5173801,106.900725 L13.6077232,99.974403 Z" id="Path-97" fill="#E2D9CE" opacity="0.246824"></path>
            <g id="Group-2" transform="translate(15.000000, 6.000000)" stroke="#000000" stroke-linecap="round" stroke-linejoin="round" stroke-width="2">
                <path d="M68.375844,63.8242075 C69.1867392,64.2301405 71.6194249,65.0420067 75.6739011,66.2598059 C79.7283772,67.4776051 82.7692343,66.4627724 84.7964724,63.2153079 L73.2412154,58.9530107 C68.7812916,57.3292784 65.7404345,56.7203788 64.1186441,57.1263119 C61.6859584,57.7352115 55.6042442,58.9530107 51.3470442,60.7797095 C48.5089109,61.9975087 45.0626062,62.8093748 41.0081301,63.2153079 L45.26533,78.4377978 C51.3470442,74.7844003 55.1987966,72.9577015 56.820587,72.9577015 C59.2532727,72.9577015 80.5392724,79.655597 84.188301,79.0466974 C86.6209866,78.6407644 96.1490056,74.1755007 112.772358,65.6509063 C112.772358,62.8093748 111.353291,61.5915756 108.515158,61.9975087 C104.257958,62.6064083 90.2700152,65.6509063 85.4046438,68.6954043" id="Path-Copy" transform="translate(76.890244, 68.045182) rotate(-75.000000) translate(-76.890244, -68.045182) "></path>
                <path d="M11.5953562,63.8242075 C12.4062514,64.2301405 14.8389371,65.0420067 18.8934133,66.2598059 C22.9478894,67.4776051 25.9887465,66.4627724 28.0159846,63.2153079 L16.4607276,58.9530107 C12.0008038,57.3292784 8.95994672,56.7203788 7.33815626,57.1263119 C4.90547058,57.7352115 -1.17624363,58.9530107 -5.43344357,60.7797095 C-8.27157687,61.9975087 -11.7178816,62.8093748 -15.7723577,63.2153079 L-11.5151578,78.4377978 C-5.43344357,74.7844003 -1.58169124,72.9577015 0.0400992146,72.9577015 C2.4727849,72.9577015 23.7587846,79.655597 27.4078131,79.0466974 C29.8404988,78.6407644 39.3685178,74.1755007 55.9918699,65.6509063 C55.9918699,62.8093748 54.5728033,61.5915756 51.73467,61.9975087 C47.47747,62.6064083 33.4895274,65.6509063 28.624156,68.6954043" id="Path-Copy-2" transform="translate(20.109756, 68.045182) scale(-1, 1) rotate(-75.000000) translate(-20.109756, -68.045182) "></path>
                <path d="M48.5,72.9430894 L48.5,21.9430894" id="Path-6"></path>
                <path d="M49,21.9430894 C53,19.6097561 55,16.4014228 55,12.3180894 C55,8.2347561 53,4.44308943 49,0.943089431 C45,4.44308943 43,8.2347561 43,12.3180894 C43,16.4014228 45,19.6097561 49,21.9430894 Z" id="Oval"></path>
                <path d="M58.2029366,42.0692871 C61.6941609,40.0672007 63.439773,37.1327505 63.439773,33.2659363 C63.439773,29.3991222 61.6941609,25.7047482 58.2029366,22.1828144 C54.7758359,25.1440368 53.0622855,28.558055 53.0622855,32.4248692 C53.0622855,36.2916833 54.7758359,39.5064893 58.2029366,42.0692871 Z" id="Oval-Copy-2" transform="translate(58.251029, 32.126051) scale(-1, 1) rotate(-53.000000) translate(-58.251029, -32.126051) "></path>
                <path d="M58.2029366,61.7087151 C61.6941609,59.7066287 63.439773,56.7721785 63.439773,52.9053643 C63.439773,49.0385502 61.6941609,45.3441762 58.2029366,41.8222424 C54.7758359,44.7834648 53.0622855,48.1974831 53.0622855,52.0642972 C53.0622855,55.9311114 54.7758359,59.1459173 58.2029366,61.7087151 Z" id="Oval-Copy-4" transform="translate(58.251029, 51.765479) scale(-1, 1) rotate(-53.000000) translate(-58.251029, -51.765479) "></path>
                <path d="M40.1593569,42.0692871 C43.6505812,40.0672007 45.3961934,37.1327505 45.3961934,33.2659363 C45.3961934,29.3991222 43.6505812,25.7047482 40.1593569,22.1828144 C36.7322562,25.1440368 35.0187058,28.558055 35.0187058,32.4248692 C35.0187058,36.2916833 36.7322562,39.5064893 40.1593569,42.0692871 Z" id="Oval-Copy-3" transform="translate(40.207450, 32.126051) rotate(-53.000000) translate(-40.207450, -32.126051) "></path>
                <path d="M40.1593569,61.7087151 C43.6505812,59.7066287 45.3961934,56.7721785 45.3961934,52.9053643 C45.3961934,49.0385502 43.6505812,45.3441762 40.1593569,41.8222424 C36.7322562,44.7834648 35.0187058,48.1974831 35.0187058,52.0642972 C35.0187058,55.9311114 36.7322562,59.1459173 40.1593569,61.7087151 Z" id="Oval-Copy-5" transform="translate(40.207450, 51.765479) rotate(-53.000000) translate(-40.207450, -51.765479) "></path>
            </g>
        </g>
    </g>
</svg>